<mxfile host="65bd71144e">
    <diagram id="LhzLOoMcZ5yWtEkAhs8z" name="Page-1">
        <mxGraphModel dx="1738" dy="608" grid="1" gridSize="10" guides="1" tooltips="1" connect="1" arrows="1" fold="1" page="1" pageScale="1" pageWidth="850" pageHeight="1100" math="0" shadow="0">
            <root>
                <mxCell id="0"/>
                <mxCell id="1" parent="0"/>
                <mxCell id="11" value="&lt;table border=&quot;1&quot; width=&quot;100%&quot; height=&quot;100%&quot; cellpadding=&quot;4&quot; style=&quot;width:100%;height:100%;border-collapse:collapse;&quot;&gt;&lt;tbody&gt;&lt;tr&gt;&lt;th align=&quot;center&quot;&gt;Interfaces(Swing)&lt;/th&gt;&lt;/tr&gt;&lt;tr&gt;&lt;td align=&quot;center&quot;&gt;nomDesClassesPage&lt;br&gt;LesNomsDesClassesPage&lt;br&gt;AttributesPage&lt;br&gt;AssociationsPage&lt;br&gt;MethodesPage&lt;br&gt;StartPage&lt;br&gt;AproposPage&lt;br&gt;HelpPage&lt;br&gt;EndPAge&lt;/td&gt;&lt;/tr&gt;&lt;tr&gt;&lt;td align=&quot;center&quot;&gt;getters,setters&lt;/td&gt;&lt;/tr&gt;&lt;/tbody&gt;&lt;/table&gt;" style="text;html=1;whiteSpace=wrap;strokeColor=none;fillColor=none;overflow=fill;" vertex="1" parent="1">
                    <mxGeometry x="230" y="320" width="230" height="210" as="geometry"/>
                </mxCell>
                <mxCell id="12" value="&lt;table border=&quot;1&quot; width=&quot;100%&quot; height=&quot;100%&quot; cellpadding=&quot;4&quot; style=&quot;width:100%;height:100%;border-collapse:collapse;&quot;&gt;&lt;tbody&gt;&lt;tr&gt;&lt;th align=&quot;center&quot;&gt;&lt;b&gt;Les Convertisseurs&lt;/b&gt;&lt;/th&gt;&lt;/tr&gt;&lt;tr&gt;&lt;td align=&quot;center&quot;&gt;WriteXmlToCpp&lt;br&gt;WriteXmlToJava&lt;br&gt;WriteXmlToSql&lt;/td&gt;&lt;/tr&gt;&lt;tr&gt;&lt;td align=&quot;center&quot;&gt;+ ConvertFromXMLToCpp&lt;br&gt;+ ConvertFromXMLToJava&lt;br&gt;+ ConvertFromXMLToSQL&lt;br&gt;&lt;/td&gt;&lt;/tr&gt;&lt;/tbody&gt;&lt;/table&gt;" style="text;html=1;whiteSpace=wrap;strokeColor=none;fillColor=none;overflow=fill;" vertex="1" parent="1">
                    <mxGeometry x="960" y="320" width="160" height="140" as="geometry"/>
                </mxCell>
                <mxCell id="13" value="&lt;table border=&quot;1&quot; width=&quot;100%&quot; height=&quot;100%&quot; cellpadding=&quot;4&quot; style=&quot;width:100%;height:100%;border-collapse:collapse;&quot;&gt;&lt;tbody&gt;&lt;tr&gt;&lt;th align=&quot;center&quot;&gt;Application&lt;/th&gt;&lt;/tr&gt;&lt;tr&gt;&lt;td align=&quot;center&quot;&gt;&lt;br&gt;&lt;/td&gt;&lt;/tr&gt;&lt;tr&gt;&lt;td align=&quot;center&quot;&gt;main&lt;/td&gt;&lt;/tr&gt;&lt;/tbody&gt;&lt;/table&gt;" style="text;html=1;whiteSpace=wrap;strokeColor=none;fillColor=none;overflow=fill;" vertex="1" parent="1">
                    <mxGeometry x="265" y="20" width="160" height="120" as="geometry"/>
                </mxCell>
                <mxCell id="14" value="&lt;table border=&quot;1&quot; width=&quot;100%&quot; height=&quot;100%&quot; cellpadding=&quot;4&quot; style=&quot;width:100%;height:100%;border-collapse:collapse;&quot;&gt;&lt;tbody&gt;&lt;tr&gt;&lt;th align=&quot;center&quot;&gt;&lt;span style=&quot;font-weight: 400;&quot;&gt;WriteXmlToCpp&lt;/span&gt;&lt;/th&gt;&lt;/tr&gt;&lt;tr&gt;&lt;td align=&quot;center&quot;&gt;&lt;/td&gt;&lt;/tr&gt;&lt;tr&gt;&lt;td align=&quot;center&quot;&gt;- printClassesFromXmlIntoCppFile&amp;nbsp;&lt;br&gt;- printClassFromXmlIntoCppFile printIncludes &lt;br&gt;- printExtendIfWeHaveIt printAttributesDeClass &lt;br&gt;- printGettersAndSetters printConstructorDeClass &lt;br&gt;- printLesVariableDautreClasses &lt;br&gt;- printMethodesDeClass printLesParametres &lt;br&gt;- printLeNomEtLesParametresDeConstructeur &lt;br&gt;- printContenueDeConstructeur &lt;br&gt;- printSuperInConstructor &lt;br&gt;- printLesVariablesDeSuperClass&lt;br&gt;&lt;/td&gt;&lt;/tr&gt;&lt;/tbody&gt;&lt;/table&gt;" style="text;html=1;whiteSpace=wrap;strokeColor=none;fillColor=none;overflow=fill;" vertex="1" parent="1">
                    <mxGeometry x="1560" y="610" width="300" height="210" as="geometry"/>
                </mxCell>
                <mxCell id="15" value="&lt;table border=&quot;1&quot; width=&quot;100%&quot; height=&quot;100%&quot; cellpadding=&quot;4&quot; style=&quot;width:100%;height:100%;border-collapse:collapse;&quot;&gt;&lt;tbody&gt;&lt;tr&gt;&lt;th align=&quot;center&quot;&gt;WriteXmlToJava&lt;/th&gt;&lt;/tr&gt;&lt;tr&gt;&lt;td align=&quot;center&quot;&gt;&lt;br&gt;&lt;/td&gt;&lt;/tr&gt;&lt;tr&gt;&lt;td align=&quot;center&quot;&gt;- printClassesFromXmlIntoJavaFile &lt;br&gt;&amp;nbsp;- printClassFromXmlIntoJavaFile&lt;br&gt;- printExtendIfWeHaveIt&lt;br&gt;- printAttributesDeClass &lt;br&gt;- printLesVariableDautreClasses &lt;br&gt;- printConstructorDeClass &lt;br&gt;- printGettersAndSetters &lt;br&gt;- printMethodesDeClass printLesParametres &lt;br&gt;-printLeNomEtLesParametresDeConstructeur &lt;br&gt;- printContenueDeConstructeur &lt;br&gt;- printSuperInConstructor &lt;br&gt;- printLesVariablesDeSuperClass&lt;br&gt;&lt;/td&gt;&lt;/tr&gt;&lt;/tbody&gt;&lt;/table&gt;" style="text;html=1;whiteSpace=wrap;strokeColor=none;fillColor=none;overflow=fill;" vertex="1" parent="1">
                    <mxGeometry x="1580" y="255" width="270" height="270" as="geometry"/>
                </mxCell>
                <mxCell id="16" value="&lt;table border=&quot;1&quot; width=&quot;100%&quot; height=&quot;100%&quot; cellpadding=&quot;4&quot; style=&quot;width:100%;height:100%;border-collapse:collapse;&quot;&gt;&lt;tbody&gt;&lt;tr&gt;&lt;th align=&quot;center&quot;&gt;WriteXmlToSql&lt;/th&gt;&lt;/tr&gt;&lt;tr&gt;&lt;td align=&quot;center&quot;&gt;&lt;br&gt;&lt;/td&gt;&lt;/tr&gt;&lt;tr&gt;&lt;td align=&quot;center&quot;&gt;- printTablesFromXmlIntoSqlFile&amp;nbsp; - printExtendIfWeHaveIt&lt;br&gt;- printleschampduTable &lt;br&gt;- printLesVariableDautreTables&lt;/td&gt;&lt;/tr&gt;&lt;/tbody&gt;&lt;/table&gt;" style="text;html=1;whiteSpace=wrap;strokeColor=none;fillColor=none;overflow=fill;" vertex="1" parent="1">
                    <mxGeometry x="1510" width="190" height="140" as="geometry"/>
                </mxCell>
                <mxCell id="21" value="&lt;table border=&quot;1&quot; width=&quot;100%&quot; height=&quot;100%&quot; cellpadding=&quot;4&quot; style=&quot;width:100%;height:100%;border-collapse:collapse;&quot;&gt;&lt;tbody&gt;&lt;tr&gt;&lt;th align=&quot;center&quot;&gt;Ã‰crivainDeFichierXML&lt;/th&gt;&lt;/tr&gt;&lt;tr&gt;&lt;td align=&quot;center&quot;&gt;&lt;br&gt;&lt;/td&gt;&lt;/tr&gt;&lt;tr&gt;&lt;td align=&quot;center&quot;&gt;+createDTDFile&lt;br&gt;&amp;nbsp;+findClass &lt;br&gt;+findMethode &lt;br&gt;+ajouterUnClass&lt;br&gt;+ajouterUnAttributte &lt;br&gt;+ajouterUneMethode &lt;br&gt;+ajouterUnParametreDeMethode &lt;br&gt;+ajouterUnAssociation&lt;/td&gt;&lt;/tr&gt;&lt;/tbody&gt;&lt;/table&gt;" style="text;html=1;whiteSpace=wrap;strokeColor=none;fillColor=none;overflow=fill;" vertex="1" parent="1">
                    <mxGeometry x="-210" y="320" width="190" height="190" as="geometry"/>
                </mxCell>
                <mxCell id="41" value="" style="endArrow=none;html=1;edgeStyle=orthogonalEdgeStyle;entryX=0;entryY=0.5;entryDx=0;entryDy=0;exitX=1;exitY=0.25;exitDx=0;exitDy=0;" edge="1" parent="1" source="12" target="16">
                    <mxGeometry relative="1" as="geometry">
                        <mxPoint x="790" y="260" as="sourcePoint"/>
                        <mxPoint x="950" y="260" as="targetPoint"/>
                    </mxGeometry>
                </mxCell>
                <mxCell id="44" value="" style="endArrow=none;html=1;edgeStyle=orthogonalEdgeStyle;exitX=1;exitY=0.5;exitDx=0;exitDy=0;entryX=0;entryY=0.5;entryDx=0;entryDy=0;" edge="1" parent="1" source="12" target="15">
                    <mxGeometry relative="1" as="geometry">
                        <mxPoint x="790" y="260" as="sourcePoint"/>
                        <mxPoint x="950" y="260" as="targetPoint"/>
                    </mxGeometry>
                </mxCell>
                <mxCell id="47" value="" style="endArrow=none;html=1;edgeStyle=orthogonalEdgeStyle;exitX=1;exitY=0.75;exitDx=0;exitDy=0;entryX=0;entryY=0.5;entryDx=0;entryDy=0;" edge="1" parent="1" source="12" target="14">
                    <mxGeometry relative="1" as="geometry">
                        <mxPoint x="790" y="260" as="sourcePoint"/>
                        <mxPoint x="950" y="260" as="targetPoint"/>
                        <Array as="points">
                            <mxPoint x="1380" y="425"/>
                            <mxPoint x="1380" y="670"/>
                            <mxPoint x="1560" y="670"/>
                        </Array>
                    </mxGeometry>
                </mxCell>
                <mxCell id="54" value="" style="endArrow=diamondThin;endFill=1;endSize=24;html=1;exitX=0.5;exitY=0;exitDx=0;exitDy=0;entryX=1;entryY=0.5;entryDx=0;entryDy=0;" edge="1" parent="1" source="12" target="13">
                    <mxGeometry width="160" relative="1" as="geometry">
                        <mxPoint x="600" y="360" as="sourcePoint"/>
                        <mxPoint x="760" y="360" as="targetPoint"/>
                    </mxGeometry>
                </mxCell>
                <mxCell id="55" value="" style="endArrow=diamondThin;endFill=1;endSize=24;html=1;exitX=0.5;exitY=0;exitDx=0;exitDy=0;" edge="1" parent="1" source="11" target="13">
                    <mxGeometry width="160" relative="1" as="geometry">
                        <mxPoint x="60" y="370" as="sourcePoint"/>
                        <mxPoint x="760" y="360" as="targetPoint"/>
                    </mxGeometry>
                </mxCell>
                <mxCell id="56" value="" style="endArrow=diamondThin;endFill=1;endSize=24;html=1;exitX=0.5;exitY=0;exitDx=0;exitDy=0;entryX=0;entryY=0.5;entryDx=0;entryDy=0;" edge="1" parent="1" source="21" target="13">
                    <mxGeometry width="160" relative="1" as="geometry">
                        <mxPoint x="-140" y="360" as="sourcePoint"/>
                        <mxPoint x="20" y="360" as="targetPoint"/>
                    </mxGeometry>
                </mxCell>
                <mxCell id="57" value="Obtenir Les DonnÃ©es D'utilisateur" style="endArrow=block;endFill=1;html=1;edgeStyle=orthogonalEdgeStyle;align=left;verticalAlign=top;exitX=0.002;exitY=0.441;exitDx=0;exitDy=0;exitPerimeter=0;" edge="1" parent="1" source="11" target="21">
                    <mxGeometry x="0.6836" y="-45" relative="1" as="geometry">
                        <mxPoint x="280" y="400" as="sourcePoint"/>
                        <mxPoint x="440" y="400" as="targetPoint"/>
                        <mxPoint as="offset"/>
                    </mxGeometry>
                </mxCell>
                <mxCell id="59" value="Generer Fichiers XML et DTD&amp;nbsp;" style="endArrow=block;endFill=1;html=1;edgeStyle=orthogonalEdgeStyle;align=left;verticalAlign=top;exitX=1;exitY=0.75;exitDx=0;exitDy=0;entryX=0;entryY=0.75;entryDx=0;entryDy=0;" edge="1" parent="1" source="21" target="11">
                    <mxGeometry x="-0.6226" y="-27" relative="1" as="geometry">
                        <mxPoint x="280" y="450" as="sourcePoint"/>
                        <mxPoint x="440" y="450" as="targetPoint"/>
                        <mxPoint y="1" as="offset"/>
                    </mxGeometry>
                </mxCell>
                <mxCell id="61" value="Ontenir Les Donnes De XML" style="endArrow=block;endFill=1;html=1;edgeStyle=orthogonalEdgeStyle;align=left;verticalAlign=top;exitX=0.5;exitY=1;exitDx=0;exitDy=0;entryX=0;entryY=0.75;entryDx=0;entryDy=0;" edge="1" parent="1" source="21" target="12">
                    <mxGeometry x="0.5109" y="28" relative="1" as="geometry">
                        <mxPoint x="350" y="580" as="sourcePoint"/>
                        <mxPoint x="510" y="580" as="targetPoint"/>
                        <Array as="points">
                            <mxPoint x="-115" y="610"/>
                            <mxPoint x="530" y="610"/>
                            <mxPoint x="530" y="425"/>
                        </Array>
                        <mxPoint as="offset"/>
                    </mxGeometry>
                </mxCell>
                <mxCell id="65" value="Generer Les Fichiers De Code( Java , SQL , C++)&amp;nbsp;" style="endArrow=block;endFill=1;html=1;edgeStyle=orthogonalEdgeStyle;align=left;verticalAlign=top;entryX=1;entryY=0.25;entryDx=0;entryDy=0;exitX=0;exitY=0.25;exitDx=0;exitDy=0;" edge="1" parent="1" source="12" target="11">
                    <mxGeometry x="0.6522" y="-42" relative="1" as="geometry">
                        <mxPoint x="970" y="350" as="sourcePoint"/>
                        <mxPoint x="880" y="490" as="targetPoint"/>
                        <mxPoint x="1" as="offset"/>
                    </mxGeometry>
                </mxCell>
            </root>
        </mxGraphModel>
    </diagram>
</mxfile>